<?xml version="1.0" encoding="utf-8"?>
<!-- Generated by IcoMoon.io -->
<!DOCTYPE svg PUBLIC "-//W3C//DTD SVG 1.1//EN" "http://www.w3.org/Graphics/SVG/1.1/DTD/svg11.dtd">
<svg version="1.1" xmlns="http://www.w3.org/2000/svg" xmlns:xlink="http://www.w3.org/1999/xlink" width="14" height="32" viewBox="0 0 14 32">
<path fill="#fff" d="M10 7.339q-0.875 0-1.107 0.277t-0.232 1.188v1.571h3.875q0.286 0 0.482 0.214 0.196 0.232 0.179 0.518l-0.25 3.571q-0.036 0.268-0.223 0.455t-0.455 0.188h-3.607v13.714q0 0.286-0.196 0.482t-0.464 0.196h-4.464q-0.286 0-0.482-0.196t-0.196-0.482v-13.714h-2.179q-0.286 0-0.482-0.205t-0.196-0.491v-3.571q0-0.286 0.196-0.482t0.482-0.196h2.179v-1.839q0-3.161 1.571-4.705t4.768-1.545q2.143 0 4.018 0.536 0.25 0.071 0.393 0.286t0.107 0.464l-0.482 3.482q-0.036 0.286-0.286 0.464-0.25 0.161-0.536 0.107-1.357-0.286-2.411-0.286z"></path>
</svg>
