<?xml version="1.0" encoding="utf-8"?>
<!-- Generated by IcoMoon.io -->
<!DOCTYPE svg PUBLIC "-//W3C//DTD SVG 1.1//EN" "http://www.w3.org/Graphics/SVG/1.1/DTD/svg11.dtd">
<svg version="1.1" xmlns="http://www.w3.org/2000/svg" xmlns:xlink="http://www.w3.org/1999/xlink" width="34" height="32" viewBox="0 0 34 32">
<path fill="#fff" d="M33.482 5.964q0 0.179-0.089 0.321-1.143 1.857-3.196 3.393v0.589q0.071 4.054-1.786 8.161-2.393 5.304-7.098 8.295t-10.563 2.991q-4.732 0-8.929-2.179-1.143-0.589-1.554-0.893-0.268-0.214-0.268-0.482 0-0.232 0.17-0.402t0.402-0.17q0.25 0 0.786 0.045t0.804 0.045q3.643 0 6.696-1.893-1.839-0.429-3.232-1.714t-1.982-3.089q-0.036-0.143-0.036-0.196 0-0.214 0.161-0.384t0.393-0.17q0.089 0 0.25 0.036t0.214 0.036q-1.589-0.982-2.536-2.625t-0.946-3.5q0-0.268 0.205-0.455t0.491-0.188q0.179 0 0.625 0.205t0.536 0.241q-1.643-1.964-1.643-4.571 0-0.911 0.259-1.929t0.723-1.696q0.179-0.286 0.446-0.286 0.286 0 0.482 0.214 1.357 1.5 1.964 2.054 2.196 1.982 4.929 3.17t5.661 1.438q-0.071-0.375-0.071-0.875 0-2.982 2.116-5.098t5.098-2.116q2.911 0 5.036 2.036 1.696-0.357 3.732-1.464 0.143-0.089 0.286-0.089 0.232 0 0.402 0.17t0.17 0.402q0 0.429-0.5 1.304t-0.911 1.357q0.125-0.036 0.536-0.188t0.768-0.286 0.429-0.134q0.232 0 0.402 0.17t0.17 0.402z"></path>
</svg>
